<svg xmlns="http://www.w3.org/2000/svg" xmlns:xlink="http://www.w3.org/1999/xlink" aria-hidden="true" role="img" class="iconify iconify--logos" width="32" height="32" preserveAspectRatio="xMidYMid meet" viewBox="0 0 256 257">
<defs>
  <linearGradient id="Icon1" x1="-.828%" x2="57.636%" y1="7.652%" y2="78.411%">
  <stop offset="0%" stop-color="#41D1FF"></stop>
  <stop offset="100%" stop-color="#BD34FE"></stop>
  </linearGradient>
  <linearGradient id="Icon2" x1="43.376%" x2="50.316%" y1="2.242%" y2="89.03%">
  <stop offset="0%" stop-color="#FFEA83"></stop>
  <stop offset="8.333%" stop-color="#FFDD35"></stop>
  <stop offset="100%" stop-color="#FFA800"></stop>
  </linearGradient>
</defs>
<path fill="url(#Icon1)" 
      d="M255 38 L135 253 c-2 4-9 4-11.382.048 L.875 38 c-3-5 1-11 7-9.67 l120 22 a7 6.5 0 0 0 2-.004 l118-21.483 c5.438-1 10 5 7 10Z">
</path>
<path fill="url(#Icon2)" 
      d="M185 .063 L96 18 a3 3.3 0 0 0 -3 3 l-6 93 a3 3 0 0 0 4 3 l25 -6 c2 -1 4 2 4 4 l-7 36 c-1 2 2 4.5 4 4 l15 -5 c2 -1 5 1 4 4 l-12 57 c-1 4 4 5 6 2 l1 -2 l73 -145 c1 -2 -1 -5 -4 -5 l-26 5 c-2 .462 -4 -2 -4 -4 l17 -58 c.677 -2 -1 -5 -4 -4 Z">
</path></svg>
